<?xml version="1.0" standalone="no"?>
<!DOCTYPE svg PUBLIC "-//W3C//DTD SVG 20010904//EN"
 "http://www.w3.org/TR/2001/REC-SVG-20010904/DTD/svg10.dtd">
<svg version="1.0" xmlns="http://www.w3.org/2000/svg"
 width="1063.000000pt" height="175.000000pt" viewBox="0 0 1063.000000 175.000000"
 preserveAspectRatio="xMidYMid meet">

<g transform="translate(0.000000,175.000000) scale(0.100000,-0.100000)"
fill="#000000" stroke="none">
<path d="M763 1636 l-28 -24 -5 -226 -5 -226 -215 -3 c-301 -3 -290 7 -290
-282 0 -210 6 -241 53 -267 15 -9 89 -15 237 -18 l215 -5 6 -225 c3 -124 6
-226 7 -228 1 -1 17 -11 35 -22 29 -18 50 -20 240 -20 306 0 297 -9 297 295
l0 205 200 0 c216 0 253 7 284 51 14 20 16 56 16 236 l0 213 -29 32 -29 33
-219 2 -218 3 -5 218 c-5 226 -7 234 -50 269 -11 9 -79 12 -242 13 -226 0
-227 0 -255 -24z"/>
<path d="M2495 1248 c-120 -16 -195 -94 -195 -203 0 -101 76 -174 218 -209
138 -35 175 -65 158 -129 -19 -76 -207 -56 -223 23 l-5 30 -80 0 -80 0 7 -37
c23 -127 123 -194 285 -194 166 0 263 77 262 207 0 58 -17 97 -59 135 -39 37
-76 54 -182 84 -108 30 -127 40 -142 76 -22 55 18 89 104 89 64 0 102 -24 112
-70 l7 -30 74 0 74 0 0 28 c0 15 -11 50 -23 77 -46 98 -161 143 -312 123z"/>
<path d="M8072 1250 c-204 -30 -332 -227 -288 -440 33 -159 138 -257 295 -278
170 -24 320 50 390 190 17 34 31 67 31 75 0 10 -19 13 -78 13 l-78 0 -32 -46
c-44 -62 -103 -88 -187 -82 -80 5 -126 35 -160 102 -45 90 -27 204 41 268 39
36 74 48 142 48 70 0 126 -29 161 -83 l24 -37 79 0 c89 0 92 4 57 73 -35 67
-61 96 -122 138 -83 55 -172 74 -275 59z"/>
<path d="M10055 1250 c-98 -14 -173 -72 -195 -148 -12 -46 -12 -58 1 -105 12
-43 59 -101 99 -122 16 -8 74 -28 130 -44 145 -42 184 -88 125 -146 -20 -21
-34 -25 -84 -25 -49 0 -65 4 -89 25 -16 14 -33 36 -36 50 -6 24 -10 25 -81 25
-74 0 -75 0 -75 -25 0 -38 27 -96 62 -133 63 -64 210 -92 331 -62 59 15 131
77 147 126 19 57 8 136 -24 178 -33 44 -117 87 -214 111 -93 22 -136 50 -140
92 -4 44 35 73 100 73 65 0 105 -22 116 -63 l8 -32 75 0 74 0 -2 40 c-3 47
-43 109 -92 142 -56 38 -152 55 -236 43z"/>
<path d="M3143 1223 c-4 -10 -64 -163 -135 -341 -70 -178 -128 -327 -128 -333
0 -6 32 -9 82 -7 l82 3 22 55 22 55 142 0 142 0 22 -55 22 -55 82 -3 c45 -2
82 1 82 6 0 9 -222 574 -257 655 l-16 37 -79 0 c-66 0 -80 -3 -85 -17z m138
-313 l47 -120 -99 0 -98 0 28 68 c15 37 36 91 45 120 10 28 21 52 24 52 4 0
28 -54 53 -120z"/>
<path d="M3680 890 l0 -350 80 0 80 0 0 120 0 119 128 3 127 3 3 68 3 67 -131
0 -130 0 0 90 0 90 140 0 140 0 0 70 0 70 -220 0 -220 0 0 -350z"/>
<path d="M4410 1218 c-5 -13 -60 -149 -121 -303 -61 -154 -120 -302 -130 -328
l-19 -48 86 3 86 3 22 55 22 55 141 3 141 3 24 -61 23 -60 82 0 c46 0 83 3 83
6 0 4 -62 161 -137 350 l-136 344 -79 0 c-72 0 -79 -2 -88 -22z m138 -304 c24
-64 42 -118 39 -120 -2 -3 -45 -3 -95 -2 l-90 3 27 70 c15 39 35 91 45 118 10
26 21 47 24 47 4 0 26 -52 50 -116z"/>
<path d="M5160 890 l0 -350 80 0 80 0 0 205 c0 113 3 205 8 205 4 0 43 -54 86
-121 l79 -120 56 3 56 3 80 117 c44 65 83 118 88 118 4 0 7 -92 7 -205 l0
-205 75 0 75 0 0 350 0 350 -67 0 -68 -1 -120 -179 c-66 -99 -122 -179 -125
-179 -3 0 -59 80 -125 177 l-121 177 -72 3 -72 3 0 -351z"/>
<path d="M6100 890 l0 -350 235 0 235 0 0 65 0 65 -155 0 -155 0 0 80 0 80
140 0 140 0 0 65 0 65 -140 0 -140 0 0 75 0 75 150 0 150 0 0 65 0 65 -230 0
-230 0 0 -350z"/>
<path d="M6710 890 l0 -350 168 0 c190 0 258 12 334 61 53 34 90 79 121 147
31 67 31 217 0 284 -31 68 -68 113 -121 147 -81 51 -136 61 -329 61 l-173 0 0
-350z m378 181 c72 -37 103 -90 104 -177 2 -140 -73 -204 -237 -204 l-85 0 0
198 c0 109 3 202 8 206 13 15 171 -3 210 -23z"/>
<path d="M7490 890 l0 -350 80 0 80 0 0 350 0 350 -80 0 -80 0 0 -350z"/>
<path d="M8660 899 c-74 -188 -136 -345 -138 -350 -2 -5 35 -9 81 -9 l85 0 24
60 23 60 140 0 140 0 23 -60 24 -60 85 0 c46 0 83 4 81 9 -1 5 -64 162 -138
350 l-135 341 -80 0 -80 0 -135 -341z m264 17 c25 -65 46 -120 46 -122 0 -2
-43 -4 -96 -4 -53 0 -94 4 -92 8 2 4 23 61 47 125 24 65 45 116 46 115 2 -2
24 -56 49 -122z"/>
<path d="M9330 890 l0 -350 230 0 230 0 0 75 0 75 -150 0 -150 0 0 275 0 275
-80 0 -80 0 0 -350z"/>
</g>
</svg>
